<?xml version="1.0" encoding="UTF-8" standalone="no"?><svg xmlns="http://www.w3.org/2000/svg" xmlns:xlink="http://www.w3.org/1999/xlink" fill="#5ec57e" height="455.2" preserveAspectRatio="xMidYMid meet" version="1" viewBox="0.0 -0.4 396.4 455.2" width="396.4" zoomAndPan="magnify"><g id="change1_1"><path d="M391.661,110.197L203,1.273c-0.01-0.006-0.021-0.012-0.03-0.018c-2.937-1.679-6.58-1.675-9.528,0.018L4.789,110.193 C1.835,111.894,0,115.067,0,118.475v217.847c0,3.408,1.835,6.582,4.78,8.278l188.701,108.947c1.442,0.823,3.081,1.258,4.738,1.258 c1.658,0,3.298-0.435,4.78-1.28l188.652-108.92c2.953-1.701,4.787-4.874,4.787-8.283V118.475 C396.439,115.067,394.605,111.893,391.661,110.197z M377.322,244.459v86.344L198.22,434.21l-67.865-39.184L377.322,244.459z M28.672,336.32l348.65-201.253v87.002L111.493,384.137L28.672,336.32z M198.183,133.872l-94.821-58.516L198.22,20.59l94.82,54.744 L198.183,133.872z M197.934,216.544L28.588,118.526l55.967-32.311l108.596,67.015c3.038,1.881,7.101,1.85,10.052,0.008 l108.646-67.045l55.947,32.3L197.934,216.544z M19.118,204.059v-68.926l159.708,92.439l-59.444,34.313L19.118,204.059z M100.258,272.926l-81.14,46.836v-93.633L100.258,272.926z" fill="inherit"/></g></svg>